<?xml version="1.0" encoding="UTF-8"?>
<svg width="1311px" height="246px" viewBox="0 0 1311 246" version="1.1" xmlns="http://www.w3.org/2000/svg" xmlns:xlink="http://www.w3.org/1999/xlink">
    <!-- Generator: Sketch 53.2 (72643) - https://sketchapp.com -->
    <title>heading-devider</title>
    <desc>Created with Sketch.</desc>
    <g id="Page-1" stroke="none" stroke-width="1" fill="none" fill-rule="evenodd">
        <g id="heading-devider" fill="#000000" fill-rule="nonzero">
            <path d="M873,164.9 C870.3,164.9 867.6,164.9 864.9,162.2 L654.1,32.5 L443.3,162.2 C437.9,164.9 432.5,164.9 429.8,162.2 L224.3,32.5 L16.2,162.2 L0,137.9 L216.2,5.5 C221.6,2.8 227,2.8 229.7,5.5 L437.8,132.5 L648.6,2.8 C654,0.1 659.4,0.1 662.1,2.8 L873,135.2 L1081.1,5.5 C1086.5,2.8 1091.9,2.8 1094.6,5.5 L1310.8,140.6 L1297.3,162.3 L1089.2,32.6 L881.1,162.3 C878.4,162.2 875.7,164.9 873,164.9 L873,164.9 Z" id="Path"></path>
            <path d="M873,246 C870.3,246 867.6,246 864.9,243.3 L654.1,113.6 L443.3,243.3 C437.9,246 432.5,246 429.8,243.3 L224.3,113.6 L13.5,243.3 L0,219 L216.2,86.6 C221.6,83.9 227,83.9 229.7,86.6 L435.1,216.3 L646,86.5 C651.4,83.8 656.8,83.8 659.5,86.5 L870.3,216.2 L1078.4,86.5 C1083.8,83.8 1089.2,83.8 1091.9,86.5 L1308.1,221.6 L1294.6,243.2 L1089.2,113.5 L881.1,243.3 C878.4,243.3 875.7,246 873,246 L873,246 Z" id="Path"></path>
        </g>
    </g>
</svg>